<?xml version="1.0" encoding="UTF-8"?>
<svg version="1.1" viewBox="0 0 4948 1749.3" xml:space="preserve" xmlns="http://www.w3.org/2000/svg" xmlns:xlink="http://www.w3.org/1999/xlink"><defs><linearGradient id="linearGradient5445" x1="2483.4" x2="2483.4" y1="-5.7139" y2="800.47" gradientUnits="userSpaceOnUse"><stop stop-color="#eb5656" offset="0"/><stop stop-color="#bc1717" offset="1"/></linearGradient><filter id="filter21096" x="-.16056" y="-.16045" width="1.3261" height="1.3259" color-interpolation-filters="sRGB"><feFlood flood-color="rgb(0,0,0)" flood-opacity=".32941" result="flood"/><feComposite in="flood" in2="SourceGraphic" operator="in" result="composite1"/><feGaussianBlur in="composite1" result="blur" stdDeviation="80"/><feOffset dx="6" dy="6" result="offset"/><feComposite in="SourceGraphic" in2="offset" result="composite2"/></filter></defs><rect width="4948" height="1749.3" fill="url(#linearGradient5445)"/><g fill="#fdfdfd" stroke-width="1.3333"><path d="m2091.3 1265.8c-34.352-4.1203-63.672-14.392-89.333-31.295-13.428-8.8451-35.546-30.734-44.294-43.836-22.548-33.768-32.526-69.236-32.819-116.66-0.1583-25.652 1.0817-38.953 5.9671-64 19.635-100.67 81.683-182.1 167.46-219.77 56.386-24.764 125.44-29.436 178.67-12.088 45.09 14.696 85.673 54.076 97.757 94.859 0.9233 3.1167 2.0421 5.6667 2.4863 5.6667 0.444 0 4.8589-23.21 9.8109-51.578 4.952-28.368 9.2049-51.779 9.4511-52.025 0.2461-0.24613 14.19-0.28623 30.988-0.0891l30.54 0.35839-85.231 484.67h-62.172l0.7049-3c1.9113-8.1334 17.874-102.92 17.411-103.38-0.2942-0.2943-1.4338 1.2029-2.5322 3.327-4.117 7.9612-20.893 28.13-33.038 39.719-49.489 47.224-108.65 70.48-177.56 69.8-11.146-0.1099-22.065-0.4157-24.265-0.6796zm84.803-56.352c83.045-16.509 149.69-82.308 172.57-170.39 20.917-80.506 5.7877-146.25-42.634-185.25-13.223-10.653-35.562-21.853-52.603-26.375-51.243-13.597-113.7-2.7843-159.88 27.677-64.585 42.611-104.23 121.38-104.26 207.15-0.013 31.922 4.2114 51.945 16.033 76.04 20.696 42.184 58.186 66.933 111.74 73.766 13.198 1.6838 44.361 0.307 59.022-2.6075zm468.76 55.823c-30.937-3.5956-59.905-13.602-83.196-28.741-11.619-7.5518-29.444-26.348-35.963-37.922-10.47-18.59-15.665-40.78-14.812-63.263l0.4046-10.667 60-0.7103 0.3018 11.853c0.9028 35.467 22.444 62.76 59.032 74.795 18.867 6.206 51.791 8.48 77.368 5.3437 58.911-7.2236 95.852-39.876 95.945-84.808 0.039-18.404-6.7515-32.892-21.931-46.8-14.753-13.516-35.367-23.589-90.716-44.325-57.928-21.702-81.219-33.673-100.92-51.87-16.511-15.249-27.174-32.426-32.372-52.146-2.9888-11.341-4.1912-40.792-2.1565-52.822 8.7659-51.828 50.37-91.639 112.64-107.78 22.696-5.8837 42.181-7.7773 71.481-6.9468 28.572 0.8099 42.884 3.07 63.786 10.073 39.336 13.179 71.047 40.969 84.112 73.711 5.4513 13.661 8.1016 29.335 8.1016 47.912v15.853h-58.667l-0.02-11.667c-0.037-21.976-6.1141-37.965-20.119-52.937-20.359-21.764-46.239-32.311-82.528-33.632-31.821-1.1586-56.852 4.4806-78.899 17.775-25.149 15.166-38.434 37.676-38.434 65.127 0 32.337 16.331 53.792 55.333 72.692 8.8 4.2645 33.7 14.77 55.333 23.345 45.666 18.102 70.556 29.649 85.858 39.83 12.759 8.4895 30.163 26.08 37.082 37.479 13.715 22.594 17.821 57.539 10.252 87.244-14.34 56.275-72.232 95.978-151.67 104.01-15.635 1.5817-50.972 1.5755-64.625-0.011zm-1001.9-9.592c1.8955-11.235 74.428-422.12 75.082-425.33l0.7474-3.6667h-66.878l0.077-3c0.043-1.65 2.0108-13.2 4.3746-25.667l4.2974-22.667 67.024-0.71197 0.9033-5.644c3.3583-20.985 10.752-54.249 14.642-65.874 18.323-54.758 51.88-88.832 102.68-104.26 22.082-6.7067 40.403-9.5869 73-11.476 11.834-0.68579 13-0.5416 12.995 1.6069 0 2.1233-6.9975 40.899-8.6323 47.867-0.6045 2.5767-1.8745 2.9249-13.681 3.7509-55.191 3.8613-82.58 18.88-99.636 54.636-6.8017 14.259-11.024 28.548-15.398 52.107-2.1784 11.733-4.2766 22.683-4.6629 24.333l-0.7023 3h56.692c46.972 0 56.692 0.31159 56.692 1.8174 0 2.1121-7.7926 44.384-8.8207 47.849-0.6452 2.1742-4.5093 2.3333-56.644 2.3333-43.552 0-56.085 0.36936-56.553 1.6667-0.3306 0.91666-17.41 97.067-37.954 213.67-20.544 116.6-37.666 213.35-38.049 215l-0.6965 3h-61.632l0.7311-4.3334zm1447.1 2.8686c-35.803-3.7753-63.906-19.452-74.561-41.593-8.3072-17.262-11.667-42.41-9.0338-67.609 1.1202-10.717 52.272-305.37 55.49-319.64l0.6713-2.9775-67.516-0.71176 4.7337-25.667 4.7336-25.667h67.292l0.7155-3c0.7409-3.1069 20.669-116.59 20.669-117.71 0-0.34538 13.984-0.62797 31.075-0.62797h31.075l-10.391 59c-5.7148 32.45-10.398 59.75-10.408 60.667-0.013 1.3113 14.195 1.6667 66.649 1.6667 38.992 0 66.667 0.50196 66.667 1.2092 0 1.2747-7.5339 42.649-8.7024 47.791l-0.6817 3h-66.563c-36.609 0-66.866 0.49109-67.237 1.0913-1.075 1.7392-53.858 300.9-55.548 314.82-3.3387 27.524 3.6008 48.366 18.662 56.05 12.332 6.2911 18.622 7.0638 62.518 7.6796l41.782 0.5861-0.6909 2.8847c-0.3802 1.5866-2.6446 13.535-5.0322 26.551l-4.3412 23.667-40.75-0.1774c-22.412-0.098-45.487-0.6769-51.277-1.2874zm235.19-307.87v-309.33h341.33v82.667h-240v181.33h213.33v82.667h-213.33v189.33h240v82.667h-341.33zm599.79 129c-0.1147-99.183-0.3556-182.13-0.5343-184.33s-0.3844-41.345-0.4572-86.99l-0.1324-82.99-164.67-0.68702-0.7052-82h432.08l-0.3525 41-0.3527 41-164.67 0.68702v534.65h-100zm368.21-128.33v-308.67h101.66l-0.4962 267.67-0.4963 267.67 208.67 0.6829v81.317h-309.33z"/><path d="m826.87 1460.2c-174.85-12.177-334.2-98.366-438.67-237.27-67.913-90.294-106.54-190.41-118.33-306.68-2.5001-24.653-2.1185-89.213 0.67592-114.34 13.651-122.76 58.576-228.92 136.97-323.66 15.781-19.072 60.36-63.044 79.913-78.824 129.71-104.68 289.75-150.69 453.68-130.41 101.73 12.583 200.92 52.638 282.99 114.28 48.326 36.296 97.346 86.787 132.44 136.41 57.216 80.919 93.421 178.09 105.14 282.2 3.1774 28.223 3.1192 92.022-0.1106 121.68-14.906 136.84-72.05 259.23-166.13 355.82-99.687 102.34-225.77 163.6-368 178.8-23.816 2.546-77.395 3.6104-100.55 1.9975zm-57.765-287.55c19.453-6.8147 35.174-17.869 47.593-33.464 12.5-15.697 14.94-22.712 32.978-94.788 9.1046-36.381 17.146-68.397 17.869-71.147l1.3149-5 50.282-0.1808c27.655-0.0995 67.019-0.54944 87.476-1l37.194-0.8192 10.471-18.667c5.7589-10.267 11.061-18.667 11.782-18.667 0.7215 0 6.0445 8.1 11.829 18 5.7845 9.9 11.045 17.713 11.69 17.363s4.7162-8.3006 9.0468-17.667 8.2837-17.029 8.7846-17.029 6.4589 7.8 13.24 17.333 12.728 17.295 13.216 17.248c0.4872-0.0469 6.5554-7.8469 13.485-17.333 6.9293-9.4864 12.929-17.243 13.333-17.237 0.404 7e-3 5.5346 7.5053 11.401 16.665 5.8666 9.1597 10.967 16.631 11.333 16.603 1.494-0.11387 37.914-57.975 39.809-63.246 1.7113-4.7589 1.7758-6.6026 0.3925-11.22-2.2128-7.3857-8.6249-14.437-14.645-16.104-4.3757-1.2117-202.24-0.0107-289.89 1.76-21.862 0.44159-26.333 0.21684-26.333-1.3237 0-1.7989 31.864-130.12 32.458-130.72 0.1626-0.16267 38.076 2.9631 84.252 6.9462 46.176 3.983 85.906 7.2526 88.29 7.2658l4.3334 0.0239v-8.7095c0-14.088 5.5537-23.321 17.743-29.498 11.654-5.9054 17.28-5.1084 49.591 7.0256l28 10.515 14-0.122c23.463-0.20455 38.819-7.3014 58.769-27.161 15.025-14.957 35.216-39.285 32.976-39.732-0.9596-0.1916-85.384-7.5313-187.61-16.31s-185.96-16.122-186.08-16.318c-0.1176-0.19592-2.7223-4.6518-5.7884-9.902-13.867-23.745-36.172-40.176-64.141-47.248-8.9708-2.2685-14.127-2.72-26.741-2.3414l-15.627 0.46902-2.2243-5.3785c-3.2835-7.9396-9.0148-14.211-17.058-18.666-6.2648-3.47-8.4491-3.952-17.807-3.9294-8.9211 0.0216-11.758 0.60124-17.333 3.5424-7.8935 4.1637-12.569 8.9141-16.83 17.099-2.5069 4.8152-3.1282 8.1063-3.1467 16.667-0.02 9.299 0.4721 11.56 3.8395 17.637 2.1244 3.8339 4.959 7.9629 6.2991 9.1756 2.3575 2.1336 2.3525 2.3227-0.1533 5.8419-3.0198 4.241-12.628 23.803-13.695 27.884-0.5269 2.0147-1.7889 2.7915-4.5223 2.7834-2.0853-7e-3 -45.192-4.1247-95.792-9.1523l-92-9.1411-23.163 1.7601c-12.74 0.96801-23.385 1.9813-23.655 2.2518-0.2704 0.27048 9.9939 5.0737 22.81 10.674l23.302 10.182 91.436 9.0238c50.29 4.9631 92.088 9.4267 92.884 9.9192 0.9747 0.6024-4.9959 26.68-18.246 79.695l-19.695 78.799h-4.3348c-6.4094 0-15.117-3.4717-21.835-8.7062-3.2665-2.5449-6.7535-4.6271-7.7489-4.6271s-4.149 1.548-7.008 3.44c-6.6963 4.4314-10.977 3.9039-12.746-1.5707-3.0459-9.4228-9.7484-11.874-20.031-7.3254-3.4683 1.5342-7.2797 2.7896-8.4698 2.7899-1.1901 2.6e-4 -4.8639-2.9858-8.1639-6.6357-7.8806-8.7163-10.924-9.3243-19.208-3.8371l-6.5231 4.3207-4.4477-5.2575c-2.4463-2.8916-4.4567-5.613-4.4676-6.0476-0.011-0.43452-2.1092-1.9152-4.6628-3.2904-3.5466-1.91-5.0115-2.1318-6.2038-0.93943-1.9377 1.9377 1.9713 11.996 8.1552 20.984 3.6965 5.3726 4.7102 6.0361 9.2222 6.0361 3.5271 0 6.765-1.2284 10.643-4.0378l5.574-4.0378 3.9594 4.335c2.1776 2.3842 3.9593 4.7523 3.9593 5.2624 0 0.5101 2.0569 2.1986 4.5708 3.7523 5.0392 3.1144 8.4947 2.8177 17.043-1.4633 6.6907-3.3508 7.3846-3.194 9.6285 2.1764 2.6705 6.3915 7.9473 11.346 12.084 11.346 1.8958 0 5.7992-1.2 8.6741-2.6667 2.8749-1.4667 7.0574-2.6667 9.2945-2.6667 5.7486 0 29.372 9.2632 29.372 11.517 0 3.0829-41.637 169.07-42.712 170.27-0.5533 0.619-44.72-9.4789-98.147-22.44-73.099-17.733-98.541-23.415-102.8-22.957-13.592 1.4619-22.622 16.592-17.673 29.611 1.7422 4.5824 56.277 70.387 61.863 74.648 5.0846 3.8782 10.657 5.3934 90.801 24.689 37.418 9.009 61.853 15.512 62.667 16.678 0.7333 1.051 3.3396 5.449 5.7918 9.7733 9.0434 15.948 22.337 29.231 38.272 38.24 17.166 9.7058 30.238 12.694 53.269 12.178 15.338-0.3438 18.678-0.8595 29.015-4.4808zm-44.057-66.546c-9.0876-4.6275-13.119-15.965-8.6863-24.426 8.8131-16.821 32.687-12.163 34.615 6.7529 1.3827 13.566-13.745 23.877-25.929 17.673zm106.99-419.24c-12.772-3.8089-17.151-21.008-7.8265-30.741 13.085-13.658 36.086-0.64469 31.164 17.632-1.3045 4.8444-9.0714 13.145-12.334 13.182-0.8911 0.0107-2.8202 0.26943-4.2869 0.57647s-4.4892 0.0147-6.7167-0.6496zm-71.847-85.399c-12.043-14.312-3.223-36.47 16.119-40.497 8.998-1.8731 21.77 4.911 26.513 14.082 2.4218 4.6833 2.4463 6.535 0.086 6.535-3.7027 0-23.036 10.699-31.086 17.202l-8.2654 6.6775-3.3662-4.0005z" filter="url(#filter21096)"/></g></svg>
